<svg width="120" height="120" viewBox="0 0 120 120" fill="none" xmlns="http://www.w3.org/2000/svg">
<rect width="120" height="120" fill="#F5F5F5"/>
<g clip-path="url(#clip0_0_1)">
<rect width="120" height="120" fill="white"/>
<path d="M70.5417 103.748C76.2868 102.363 81.7029 99.8611 86.4808 96.3836C91.2588 92.9061 95.305 88.5215 98.3885 83.4803C101.472 78.439 103.532 72.8398 104.452 67.0023C105.371 61.1648 105.132 55.2033 103.748 49.4583" stroke="black" stroke-width="10"/>
<path d="M37.861 99.1774C43.0059 102.085 48.673 103.95 54.5388 104.667C60.4046 105.385 66.3542 104.939 72.0479 103.357C77.7417 101.775 83.0681 99.0869 87.7229 95.4463C92.3778 91.8057 96.27 87.2838 99.1774 82.139" stroke="black" stroke-width="10"/>
<path d="M19.7771 39.8228C17.1274 45.1049 15.544 50.8572 15.1174 56.7513C14.6908 62.6454 15.4293 68.5657 17.2907 74.1744C19.1521 79.7831 22.1 84.9702 25.966 89.4396C29.8321 93.909 34.5406 97.5732 39.8228 100.223" stroke="black" stroke-width="10"/>
<path d="M79.5527 19.4699C74.2302 16.9022 68.4541 15.408 62.5541 15.0725C56.6542 14.7371 50.7459 15.5671 45.1667 17.515C39.5875 19.463 34.4466 22.4907 30.0375 26.4255C25.6285 30.3602 22.0376 35.1248 19.4699 40.4473" stroke="black" stroke-width="10"/>
<path d="M94.1347 32.8308L66.5036 28.6077L81.915 7.69142L94.1347 32.8308Z" fill="black"/>
</g>
<defs>
<clipPath id="clip0_0_1">
<rect width="120" height="120" fill="white"/>
</clipPath>
</defs>
</svg>
