<svg width="120" height="120" viewBox="0 0 120 120" fill="none" xmlns="http://www.w3.org/2000/svg">
<rect width="120" height="120" fill="none"/>
<rect width="120" height="120" fill="none"/>
<path d="M61.7812 93H51.8438C51.75 92.9688 51.6094 92.9219 51.4219 92.8594C51.2656 92.7969 51.0781 92.7344 50.8594 92.6719C50.6406 92.5781 50.4375 92.5 50.25 92.4375C50.0938 92.375 49.9688 92.3125 49.875 92.25H49.6406H49.4531C48.6094 92.5625 47.7812 92.7656 46.9688 92.8594C46.1562 92.9531 45.2656 93 44.2969 93C43.7344 93 43.0938 92.9688 42.375 92.9062C41.6875 92.8125 41.0156 92.6406 40.3594 92.3906C39.7344 92.1406 39.2031 91.7969 38.7656 91.3594C38.3281 90.9219 38.1094 90.3281 38.1094 89.5781C38.1094 89.0156 38.2969 88.5 38.6719 88.0312C39.0781 87.5312 39.5469 87.2344 40.0781 87.1406C40.2344 87.1406 40.5469 87.125 41.0156 87.0938C41.4844 87.0625 41.9688 87.0312 42.4688 87C43 86.9688 43.4844 86.9375 43.9219 86.9062C44.3906 86.875 44.7188 86.8594 44.9062 86.8594C45.4375 86.7656 45.8906 86.5938 46.2656 86.3438C46.6406 86.0625 46.9688 85.7344 47.25 85.3594C47.5312 84.9844 47.7656 84.5938 47.9531 84.1875C48.1719 83.75 48.375 83.3125 48.5625 82.875C48.5312 82.625 48.5 82.1719 48.4688 81.5156C48.4375 80.8594 48.4219 80.1719 48.4219 79.4531C48.4219 78.7344 48.4375 78.0625 48.4688 77.4375C48.5 76.8125 48.5312 76.3438 48.5625 76.0312C48.5625 75.9062 48.5938 75.5938 48.6562 75.0938C48.7188 74.5625 48.7812 74 48.8438 73.4062C48.9062 72.8125 48.9688 72.2656 49.0312 71.7656C49.0938 71.2656 49.125 70.9375 49.125 70.7812V70.6406V70.5469C49.125 70.4531 49.0781 70.2656 48.9844 69.9844C48.8906 69.7031 48.8438 69.5312 48.8438 69.4688V69.1406C48.8438 68.8594 48.8906 68.5938 48.9844 68.3438C49.0781 68.0625 49.125 67.7344 49.125 67.3594C49.125 66.9531 49.0781 66.5625 48.9844 66.1875C48.8906 65.8125 48.8438 65.4219 48.8438 65.0156V64.3125C48.875 64.1562 48.9219 63.75 48.9844 63.0938C49.0469 62.4062 49.1094 61.6719 49.1719 60.8906C49.2656 60.1094 49.3281 59.3906 49.3594 58.7344C49.4219 58.0469 49.4531 57.6094 49.4531 57.4219V56.4375V53.5781C49.5156 52.8594 49.6562 52.1719 49.875 51.5156C50.0938 50.8594 50.2031 50.1719 50.2031 49.4531C50.2031 48.9219 50.125 48.5 49.9688 48.1875C49.8438 47.8438 49.7812 47.4062 49.7812 46.875C49.7812 46.625 49.7969 46.3906 49.8281 46.1719C49.8594 45.9219 49.9844 45.6875 50.2031 45.4688V37.9219C50.2031 37.8906 50.1562 37.7656 50.0625 37.5469C50 37.3281 49.9375 37.1406 49.875 36.9844C49.7188 36.6094 49.5625 36.1875 49.4062 35.7188C49.2812 35.25 49 34.9062 48.5625 34.6875C48.4688 34.6562 48.3125 34.5938 48.0938 34.5C47.9062 34.4062 47.6875 34.3125 47.4375 34.2188C47.1875 34.0938 46.9375 33.9844 46.6875 33.8906C46.4688 33.7969 46.3125 33.7344 46.2188 33.7031H43.4531C41.4844 33.7031 39.6094 33.7656 37.8281 33.8906C36.0469 33.9844 34.2031 34.0312 32.2969 34.0312H30.3281C29.5469 34.4688 28.875 34.9219 28.3125 35.3906C27.7812 35.8281 27.2656 36.3594 26.7656 36.9844C26.7031 36.9844 26.625 37.0625 26.5312 37.2188C26.4688 37.375 26.4062 37.4844 26.3438 37.5469C26.2188 37.8906 26.125 38.1719 26.0625 38.3906C26 38.6094 25.9219 38.8125 25.8281 39C25.7656 39.1875 25.6719 39.375 25.5469 39.5625C25.4219 39.7188 25.2656 39.9375 25.0781 40.2188C24.7344 40.6562 24.375 41.1094 24 41.5781C23.6562 42.0156 23.2812 42.4375 22.875 42.8438C22.4688 43.25 22.0156 43.5781 21.5156 43.8281C21.0156 44.0781 20.4688 44.2031 19.875 44.2031C19.4375 44.2031 19.0469 44.1094 18.7031 43.9219C18.3906 43.7344 18.2344 43.3594 18.2344 42.7969V42.5625C18.2344 42.375 18.25 42.1094 18.2812 41.7656C18.3125 41.3906 18.3438 41.0156 18.375 40.6406C18.4375 40.2656 18.4844 39.9219 18.5156 39.6094C18.5469 39.2656 18.5625 39.0312 18.5625 38.9062C18.5938 38.75 18.6094 38.5469 18.6094 38.2969C18.6406 38.0469 18.6719 37.8125 18.7031 37.5938C18.7344 37.3438 18.75 37.125 18.75 36.9375C18.7812 36.75 18.7969 36.6562 18.7969 36.6562C18.8906 36.5938 19.0781 36.4375 19.3594 36.1875C19.6406 35.9062 19.8125 35.7344 19.875 35.6719C19.9062 35.6094 19.9844 35.4062 20.1094 35.0625C20.2656 34.7188 20.4062 34.3438 20.5312 33.9375C20.6875 33.5312 20.8281 33.1562 20.9531 32.8125C21.0781 32.4375 21.1562 32.2031 21.1875 32.1094V30.4688C21.2188 30.125 21.3438 29.8906 21.5625 29.7656C21.7812 29.6094 22 29.4062 22.2188 29.1562C22.5 28.7812 22.75 28.4062 22.9688 28.0312C23.1875 27.625 23.4375 27.2656 23.7188 26.9531C24 26.6094 24.3281 26.3281 24.7031 26.1094C25.0781 25.8906 25.5469 25.7812 26.1094 25.7812C26.6094 25.7812 27.0781 25.8906 27.5156 26.1094C27.9531 26.2969 28.375 26.5469 28.7812 26.8594C29.2188 27.1406 29.6406 27.4375 30.0469 27.75C30.4531 28.0312 30.875 28.2656 31.3125 28.4531C31.375 28.4844 31.4844 28.5156 31.6406 28.5469C31.8281 28.5469 32.0156 28.5469 32.2031 28.5469C32.3906 28.5469 32.5625 28.5469 32.7188 28.5469C32.875 28.5469 32.9688 28.5469 33 28.5469C33.7188 28.5469 34.3281 28.4844 34.8281 28.3594C35.3594 28.2031 35.9375 28.125 36.5625 28.125C37.8438 28.125 39.0938 28.25 40.3125 28.5C41.5312 28.75 42.7969 28.875 44.1094 28.875C44.6406 28.875 45.1719 28.8125 45.7031 28.6875C46.2656 28.5313 46.8125 28.4531 47.3438 28.4531H47.5312C48.0625 28.4844 48.7344 28.5313 49.5469 28.5938C50.3906 28.625 51.2031 28.6719 51.9844 28.7344C52.7969 28.7656 53.5 28.7969 54.0938 28.8281C54.6875 28.8594 55.0156 28.875 55.0781 28.875C55.1094 28.875 55.2188 28.8906 55.4062 28.9219C55.5938 28.9531 55.7812 28.9844 55.9688 29.0156C56.1875 29.0469 56.3906 29.0781 56.5781 29.1094C56.7656 29.1406 56.8906 29.1562 56.9531 29.1562H57.2344C58.8906 29.1562 60.5 29.1094 62.0625 29.0156C63.6562 28.9219 65.2656 28.875 66.8906 28.875C67.5156 28.875 68.125 28.9219 68.7188 29.0156C69.3438 29.1094 69.9844 29.1562 70.6406 29.1562H71.6719C72.5781 29.1562 73.4688 29.125 74.3438 29.0625C75.2188 29 76.0312 28.7969 76.7812 28.4531C76.9375 28.4531 77.0781 28.4219 77.2031 28.3594C77.3594 28.2656 77.4688 28.1875 77.5312 28.125C77.5938 28.0937 77.75 27.9844 78 27.7969C78.25 27.6094 78.5156 27.4063 78.7969 27.1875C79.1094 26.9375 79.375 26.7188 79.5938 26.5312C79.8438 26.3438 80 26.2187 80.0625 26.1562C80.0938 26.1562 80.1875 26.1406 80.3438 26.1094C80.5312 26.0781 80.7188 26.0625 80.9062 26.0625C81.125 26.0312 81.3438 26 81.5625 25.9688C81.7812 25.9375 81.9531 25.9219 82.0781 25.9219H82.6406C83.1406 25.9219 83.4844 26.1406 83.6719 26.5781C83.8594 26.9844 84.0781 27.3906 84.3281 27.7969C84.3906 27.8906 84.5 28.0781 84.6562 28.3594C84.8438 28.6406 84.9844 28.8125 85.0781 28.875C85.0781 28.9063 85.0781 29.0312 85.0781 29.25C85.1094 29.4688 85.125 29.7031 85.125 29.9531C85.1562 30.2031 85.1875 30.4375 85.2188 30.6562C85.25 30.875 85.2812 31 85.3125 31.0312C85.3438 31.125 85.4219 31.2969 85.5469 31.5469C85.6719 31.7969 85.7969 32.0781 85.9219 32.3906C86.0781 32.6719 86.2188 32.9375 86.3438 33.1875C86.5 33.4375 86.6094 33.6094 86.6719 33.7031C86.6719 33.7656 86.7031 33.9375 86.7656 34.2188C86.8281 34.4688 86.8906 34.625 86.9531 34.6875C87.0469 34.9375 87.2188 35.3594 87.4688 35.9531C87.7188 36.5156 87.9844 37.125 88.2656 37.7812C88.5469 38.4375 88.8125 39.0625 89.0625 39.6562C89.3438 40.25 89.5312 40.6719 89.625 40.9219C89.625 40.9844 89.625 41.1406 89.625 41.3906C89.6562 41.6094 89.6875 41.8594 89.7188 42.1406C89.75 42.4219 89.7812 42.6875 89.8125 42.9375C89.8438 43.1875 89.8906 43.3594 89.9531 43.4531V43.875C89.9531 44.7188 89.5938 45.3594 88.875 45.7969C88.1562 46.2344 87.4219 46.4531 86.6719 46.4531C86.5469 46.4531 86.3594 46.4375 86.1094 46.4062C85.8594 46.375 85.7031 46.3594 85.6406 46.3594C85.1406 45.9219 84.6094 45.4375 84.0469 44.9062C83.5156 44.375 83.0781 43.7812 82.7344 43.125C82.2031 42.125 81.6875 41.1406 81.1875 40.1719C80.7188 39.1719 80.1562 38.2812 79.5 37.5C78.8438 36.7188 78.0625 36.0781 77.1562 35.5781C76.2812 35.0781 75.1875 34.7812 73.875 34.6875H72.2344H68.1094C67.9844 34.625 67.75 34.5469 67.4062 34.4531C67.0625 34.3281 66.875 34.2656 66.8438 34.2656H64.125H61.5469C61.4219 34.3594 61.1562 34.5 60.75 34.6875C60.3438 34.8438 60.0781 34.9531 59.9531 35.0156C59.8906 35.0781 59.8281 35.125 59.7656 35.1562C59.6719 35.25 59.625 35.3125 59.625 35.3438C59.5938 35.4375 59.5625 35.6094 59.5312 35.8594C59.5 36.1094 59.4688 36.375 59.4375 36.6562C59.4062 36.9375 59.375 37.2031 59.3438 37.4531C59.3125 37.6719 59.2969 37.8281 59.2969 37.9219V38.1094V38.25C59.2969 38.3438 59.3125 38.5469 59.3438 38.8594C59.375 39.1719 59.4062 39.5156 59.4375 39.8906C59.5 40.2656 59.5469 40.6094 59.5781 40.9219C59.6094 41.2344 59.625 41.4219 59.625 41.4844V42.1406C59.625 43.0781 59.5625 44.0312 59.4375 45C59.3438 45.9688 59.2969 46.9375 59.2969 47.9062C59.2969 48.8125 59.3438 49.7344 59.4375 50.6719C59.5625 51.5781 59.625 52.5156 59.625 53.4844C59.625 53.8281 59.5 54.1406 59.25 54.4219C59 54.7031 58.875 55 58.875 55.3125C58.875 55.875 58.9375 56.4375 59.0625 57C59.2188 57.5312 59.2969 58.0625 59.2969 58.5938V60.0938C59.2969 60.0938 59.2812 60.1719 59.25 60.3281C59.2188 60.4531 59.1719 60.5938 59.1094 60.75C59.0781 60.875 59.0469 61.0156 59.0156 61.1719C58.9844 61.2969 58.9688 61.3594 58.9688 61.3594V61.875V63C58.9375 63.0625 58.9062 63.1875 58.875 63.375C58.8438 63.5625 58.8125 63.7656 58.7812 63.9844C58.75 64.1719 58.7031 64.3594 58.6406 64.5469C58.6094 64.7344 58.5781 64.8594 58.5469 64.9219C58.2969 67.5781 58.0781 70.2188 57.8906 72.8438C57.7344 75.4375 57.6562 78.0781 57.6562 80.7656V81.6562C57.6562 82 57.6719 82.3281 57.7031 82.6406C57.7344 82.9531 57.8281 83.375 57.9844 83.9062C58.0781 84.1875 58.2344 84.5312 58.4531 84.9375C58.7031 85.3125 58.9844 85.6875 59.2969 86.0625C59.6406 86.4375 59.9844 86.7656 60.3281 87.0469C60.7031 87.2969 61.0625 87.4219 61.4062 87.4219C61.875 87.4219 62.3281 87.3594 62.7656 87.2344C63.2031 87.0781 63.6562 87 64.125 87C64.6562 87 65.2656 87.0469 65.9531 87.1406C66.6406 87.2344 67.2812 87.4062 67.875 87.6562C68.5 87.9062 69.0156 88.25 69.4219 88.6875C69.8594 89.125 70.0781 89.7031 70.0781 90.4219C70.0781 90.7344 70 91.0781 69.8438 91.4531C69.7188 91.7969 69.5312 92.125 69.2812 92.4375C69.0625 92.75 68.7812 93.0156 68.4375 93.2344C68.125 93.4844 67.7812 93.625 67.4062 93.6562C67.25 93.6562 66.9688 93.6406 66.5625 93.6094C66.1875 93.5781 65.7656 93.5469 65.2969 93.5156C64.8594 93.4844 64.4375 93.4531 64.0312 93.4219C63.625 93.3906 63.3438 93.3594 63.1875 93.3281C63.0625 93.3281 62.8281 93.2656 62.4844 93.1406C62.1719 93.0469 61.9375 93 61.7812 93Z" fill="black"/>
<path d="M97 15V105" stroke="black" stroke-width="5"/>
<path d="M86 15H108" stroke="black" stroke-width="5" stroke-linecap="round"/>
<path d="M86 105H108" stroke="black" stroke-width="5" stroke-linecap="round"/>
<path d="M86.4088 101.191C86.2666 101.334 85.6934 101.506 84.8893 101.622C84.1904 101.722 83.6817 102.051 83.2356 102.425C82.7671 102.817 82.8473 103.601 82.7745 104.377C82.6778 105.408 82.8163 106.561 83.2322 107.079C83.5951 107.532 84.2799 107.54 84.9552 107.755C85.6975 107.991 86.1761 108.316 86.7515 108.431C87.3816 108.557 88.0724 108.661 90.0927 108.676C91.0384 108.683 91.7201 108.517 92.6828 108.374C93.5535 108.245 94.1921 108.145 94.9528 108.015C96.1306 107.813 96.8348 108.173 97.511 108.258C98.6638 108.405 100.398 108.402 101.116 108.531C102.124 108.713 102.982 108.89 104.375 108.977C104.851 109.062 105.197 109.149 105.712 109.192C106.056 109.207 106.568 109.207 107.009 109.207" stroke="none" stroke-width="2" stroke-linecap="round"/>
<path d="M107.009 109.207C107.381 109.15 108.126 108.978 108.731 108.791C109.301 108.615 109.879 108.347 110.269 107.887C110.715 107.362 110.772 106.682 110.987 106.106C111.102 105.8 111.318 105.559 111.419 105.273C111.684 104.52 111.003 103.923 110.788 103.362C110.581 102.822 110.114 102.429 109.569 102.068C108.851 101.594 106.964 101.794 105.805 101.723C104.77 101.651 103.627 101.536 102.774 101.364C102.615 101.306 102.444 101.25 102.096 101.191" stroke="none" stroke-width="2" stroke-linecap="round"/>
<path d="M102.096 101.191C101.868 101.049 101.437 100.675 101.179 100.602C100.95 100.538 100.889 101.045 100.818 101.361C100.747 101.478 100.605 101.506 100.461 101.521C100.316 101.536 100.174 101.536 100.027 101.536" stroke="none" stroke-width="2" stroke-linecap="round"/>
<path d="M100.027 101.536C100.027 101.108 99.9705 100.131 99.9554 97.8243C99.9487 96.792 100.17 96.1659 100.214 94.6463C100.241 93.7181 100.372 92.9768 100.558 92.2583C100.741 91.5494 100.689 90.765 100.545 90.132C100.252 88.8455 100.401 86.9725 100.358 86.1533C100.286 85.1073 100.343 83.611 100.429 83.0227C100.458 82.7758 100.458 82.6336 100.458 82.487" stroke="none" stroke-width="2" stroke-linecap="round"/>
<path d="M100.803 86.0641C100.775 85.5495 100.66 84.6315 100.617 83.7407C100.542 82.2175 100.43 81.095 100.387 79.5285C100.348 78.1046 100.372 75.4019 100.386 73.9246C100.407 71.7841 100.745 70.3562 100.875 68.1936C100.956 66.8419 100.889 64.3364 100.875 62.9474C100.855 61.0107 100.746 60.3819 100.703 59.6199C100.664 58.937 100.488 58.3701 100.373 57.5375C100.26 56.7204 99.9136 56.1015 99.7119 54.9823C99.7395 53.2554 99.855 52.1677 100.184 51.2596C100.285 51.0153 100.37 50.7024 100.545 50.1214" stroke="none" stroke-width="2" stroke-linecap="round"/>
<path d="M100.717 51.3281C100.717 51.2144 100.717 48.994 100.703 45.6333C100.695 43.7736 100.574 42.6278 100.53 41.6206C100.497 40.8401 100.401 40.1558 100.358 39.0512C100.315 37.9527 100.343 36.852 100.429 35.722C100.645 32.8921 100.545 32.1967 100.702 30.381C101.131 25.4321 100.66 24.8409 100.402 24.3371C100.125 23.7973 100.086 23.0033 100.042 22.1978C100.056 21.9957 100.084 21.7966 100.099 21.5802C100.114 21.3639 100.114 21.1363 100.114 20.9019" stroke="none" stroke-width="2" stroke-linecap="round"/>
<path d="M100.027 20.04C99.9989 19.8115 99.9412 19.1246 100.284 18.4475C100.794 17.4416 103.27 18.2006 104.075 18.3299C104.919 18.4653 105.826 18.7453 106.561 18.9906C106.72 19.0341 106.863 19.0625 107.106 19.0772C107.35 19.0918 107.692 19.0918 108.043 19.0918" stroke="none" stroke-width="2" stroke-linecap="round"/>
<path d="M108.905 18.8332C109.105 18.6333 109.621 18.1178 110.168 17.6571C110.924 17.0196 111.231 15.9337 111.404 15.3019C111.497 14.9657 111.491 14.4977 111.42 14.0383C111.328 13.4408 110.431 13.4324 109.927 13.0458C109.329 12.5869 109.023 12.0257 108.405 11.852C107.82 11.6876 107.185 11.593 106.494 11.5215C105.778 11.4472 105.087 11.3637 104.512 11.2487C104.225 11.1913 103.936 11.1336 103.635 11.0905C103.477 11.0758 103.306 11.0758 103.13 11.0758" stroke="none" stroke-width="2" stroke-linecap="round"/>
<path d="M102.613 11.9378C102.299 11.9378 101.725 11.8809 100.707 11.8231C99.8695 11.7757 99.0827 11.593 97.8661 11.5215C94.517 11.3245 93.8818 11.1345 93.1634 11.0616C92.0219 10.9459 90.3479 11.0465 89.701 11.3189C89.1218 11.5628 86.7743 11.593 85.0332 11.8645C84.2549 12.3101 83.9394 12.6549 83.6386 12.9126C83.48 13.0566 83.3093 13.2272 82.9611 13.5755" stroke="none" stroke-width="2" stroke-linecap="round"/>
<path d="M84.685 11.5068C84.3988 12.0214 83.8834 12.8256 83.5369 13.4294C83.0634 14.2545 82.7318 15.0666 82.8025 15.785C82.8689 16.4602 83.3904 17.2197 83.7356 17.7972C84.2514 18.2859 85.0556 18.5747 85.9154 18.6462C86.3442 18.6609 87.0553 18.6609 87.7879 18.6609" stroke="none" stroke-width="2" stroke-linecap="round"/>
<path d="M86.3226 18.4023C86.5795 18.3738 87.2104 18.2592 87.8569 18.1584C88.8942 17.9965 89.71 18.4299 90.2854 18.5885C90.8607 18.8324 91.2348 19.1194 91.4352 19.306C91.5503 19.3789 91.6925 19.4073 91.839 19.5228" stroke="none" stroke-width="2" stroke-linecap="round"/>
<path d="M93.4336 22.9274C93.462 23.1558 93.5198 23.7859 93.6771 24.7052C93.8148 25.5102 93.9783 26.1993 94.1516 26.9035C94.4108 27.9573 93.9801 28.7834 93.9365 29.9768C93.9104 30.6943 93.6353 31.5416 93.5918 34.3088C93.5805 35.0216 93.5198 36.7597 93.534 39.2727C93.5404 40.3927 93.606 41.3651 93.6202 42.5998C93.6414 44.4365 93.5491 47.0288 93.4771 48.0343C93.3971 49.1526 93.175 49.7594 93.0893 52.6667C93.0319 53.5502 93.0026 54.0122 92.9884 54.485C92.9742 54.7302 92.9457 54.9862 92.9164 55.2499" stroke="none" stroke-width="2" stroke-linecap="round"/>
<path d="M93.0026 53.7416C93.0595 54.2854 93.175 55.4292 93.2466 56.5101C93.3312 57.7888 93.4043 58.5356 93.5767 59.2691C93.8833 60.5736 93.8646 62.6074 93.9503 63.7516C94.0122 64.5766 94.2369 65.5449 94.2813 67.239C94.3033 68.0792 93.9818 70.2441 93.793 71.8956C93.7215 73.2463 93.606 74.5659 93.6344 75.5985C93.6629 76.0622 93.7198 76.4035 93.7784 76.8414" stroke="none" stroke-width="2" stroke-linecap="round"/>
<path d="M93.4336 77.9619C93.4336 78.0188 93.4336 80.352 93.4478 83.914C93.5198 86.1434 93.5482 87.6716 93.5913 88.1573C93.606 88.5008 93.606 89.0412 93.606 89.598" stroke="none" stroke-width="2" stroke-linecap="round"/>
<path d="M93.6922 89.7704C93.7206 90.1419 93.8353 90.8306 93.9361 91.5343C94.0729 92.4888 94.0938 93.244 94.0805 96.1077C93.7792 97.8993 93.5491 98.7017 93.4198 99.3357C93.3767 99.4801 93.3198 99.6223 93.2612 99.7688" stroke="none" stroke-width="2" stroke-linecap="round"/>
</svg>
